<svg viewBox="0 0 1273 400" xmlns="http://www.w3.org/2000/svg"><g><g><g><g><g><line x1="58.59375" y1="377" x2="53.59375" y2="377" style="visibility: inherit;" fill="rgb(0, 0, 0)" stroke="rgb(204, 204, 204)" stroke-width="1px"></line><line x1="58.59375" y1="339.3" x2="53.59375" y2="339.3" style="visibility: inherit;" fill="rgb(0, 0, 0)" stroke="rgb(204, 204, 204)" stroke-width="1px"></line><line x1="58.59375" y1="301.59999999999997" x2="53.59375" y2="301.59999999999997" style="visibility: inherit;" fill="rgb(0, 0, 0)" stroke="rgb(204, 204, 204)" stroke-width="1px"></line><line x1="58.59375" y1="263.9" x2="53.59375" y2="263.9" style="visibility: inherit;" fill="rgb(0, 0, 0)" stroke="rgb(204, 204, 204)" stroke-width="1px"></line><line x1="58.59375" y1="226.19999999999996" x2="53.59375" y2="226.19999999999996" style="visibility: inherit;" fill="rgb(0, 0, 0)" stroke="rgb(204, 204, 204)" stroke-width="1px"></line><line x1="58.59375" y1="188.49999999999997" x2="53.59375" y2="188.49999999999997" style="visibility: inherit;" fill="rgb(0, 0, 0)" stroke="rgb(204, 204, 204)" stroke-width="1px"></line><line x1="58.59375" y1="150.79999999999995" x2="53.59375" y2="150.79999999999995" style="visibility: inherit;" fill="rgb(0, 0, 0)" stroke="rgb(204, 204, 204)" stroke-width="1px"></line><line x1="58.59375" y1="113.09999999999997" x2="53.59375" y2="113.09999999999997" style="visibility: inherit;" fill="rgb(0, 0, 0)" stroke="rgb(204, 204, 204)" stroke-width="1px"></line><line x1="58.59375" y1="75.39999999999992" x2="53.59375" y2="75.39999999999992" style="visibility: inherit;" fill="rgb(0, 0, 0)" stroke="rgb(204, 204, 204)" stroke-width="1px"></line><line x1="58.59375" y1="37.69999999999993" x2="53.59375" y2="37.69999999999993" style="visibility: inherit;" fill="rgb(0, 0, 0)" stroke="rgb(204, 204, 204)" stroke-width="1px"></line><line x1="58.59375" y1="0" x2="53.59375" y2="0" style="visibility: inherit;" fill="rgb(0, 0, 0)" stroke="rgb(204, 204, 204)" stroke-width="1px"></line></g><g transform="translate(48.59375, 0)"><text x="0" y="377" dx="0em" dy="0.3em" style="text-anchor: end; visibility: hidden; font-family: &quot;Helvetica Neue&quot;, sans-serif; font-size: 12px; font-weight: 200;" fill="rgb(50, 49, 63)" stroke="none" stroke-width="1px">-2e-3</text><text x="0" y="339.3" dx="0em" dy="0.3em" style="text-anchor: end; visibility: inherit; font-family: &quot;Helvetica Neue&quot;, sans-serif; font-size: 12px; font-weight: 200;" fill="rgb(50, 49, 63)" stroke="none" stroke-width="1px">0</text><text x="0" y="301.59999999999997" dx="0em" dy="0.3em" style="text-anchor: end; visibility: inherit; font-family: &quot;Helvetica Neue&quot;, sans-serif; font-size: 12px; font-weight: 200;" fill="rgb(50, 49, 63)" stroke="none" stroke-width="1px">2e-3</text><text x="0" y="263.9" dx="0em" dy="0.3em" style="text-anchor: end; visibility: inherit; font-family: &quot;Helvetica Neue&quot;, sans-serif; font-size: 12px; font-weight: 200;" fill="rgb(50, 49, 63)" stroke="none" stroke-width="1px">4e-3</text><text x="0" y="226.19999999999996" dx="0em" dy="0.3em" style="text-anchor: end; visibility: inherit; font-family: &quot;Helvetica Neue&quot;, sans-serif; font-size: 12px; font-weight: 200;" fill="rgb(50, 49, 63)" stroke="none" stroke-width="1px">6e-3</text><text x="0" y="188.49999999999997" dx="0em" dy="0.3em" style="text-anchor: end; visibility: inherit; font-family: &quot;Helvetica Neue&quot;, sans-serif; font-size: 12px; font-weight: 200;" fill="rgb(50, 49, 63)" stroke="none" stroke-width="1px">8e-3</text><text x="0" y="150.79999999999995" dx="0em" dy="0.3em" style="text-anchor: end; visibility: inherit; font-family: &quot;Helvetica Neue&quot;, sans-serif; font-size: 12px; font-weight: 200;" fill="rgb(50, 49, 63)" stroke="none" stroke-width="1px">0.01</text><text x="0" y="113.09999999999997" dx="0em" dy="0.3em" style="text-anchor: end; visibility: inherit; font-family: &quot;Helvetica Neue&quot;, sans-serif; font-size: 12px; font-weight: 200;" fill="rgb(50, 49, 63)" stroke="none" stroke-width="1px">0.012</text><text x="0" y="75.39999999999992" dx="0em" dy="0.3em" style="text-anchor: end; visibility: inherit; font-family: &quot;Helvetica Neue&quot;, sans-serif; font-size: 12px; font-weight: 200;" fill="rgb(50, 49, 63)" stroke="none" stroke-width="1px">0.014</text><text x="0" y="37.69999999999993" dx="0em" dy="0.3em" style="text-anchor: end; visibility: inherit; font-family: &quot;Helvetica Neue&quot;, sans-serif; font-size: 12px; font-weight: 200;" fill="rgb(50, 49, 63)" stroke="none" stroke-width="1px">0.016</text><text x="0" y="0" dx="0em" dy="0.3em" style="text-anchor: end; visibility: hidden; font-family: &quot;Helvetica Neue&quot;, sans-serif; font-size: 12px; font-weight: 200;" fill="rgb(50, 49, 63)" stroke="none" stroke-width="1px">0.018</text></g><line x1="58.59375" y1="0" x2="58.59375" y2="377" fill="rgb(0, 0, 0)" stroke="rgb(204, 204, 204)" stroke-width="1px"></line></g></g><g transform="translate(58, 0)" clip-path="url(#clip_0)"><clipPath id="clip_0"><rect width="1214" height="377"></rect></clipPath><g><g><g><line x1="0" y1="0" x2="0" y2="377" fill="rgb(0, 0, 0)" stroke="rgb(60, 60, 60)" stroke-width="1px" opacity="0.25"></line><line x1="86.74330357142857" y1="0" x2="86.74330357142857" y2="377" fill="rgb(0, 0, 0)" stroke="rgb(60, 60, 60)" stroke-width="1px" opacity="0.25"></line><line x1="173.48660714285714" y1="0" x2="173.48660714285714" y2="377" fill="rgb(0, 0, 0)" stroke="rgb(60, 60, 60)" stroke-width="1px" opacity="0.25"></line><line x1="260.2299107142857" y1="0" x2="260.2299107142857" y2="377" fill="rgb(0, 0, 0)" stroke="rgb(60, 60, 60)" stroke-width="1px" opacity="0.25"></line><line x1="346.9732142857143" y1="0" x2="346.9732142857143" y2="377" fill="rgb(0, 0, 0)" stroke="rgb(60, 60, 60)" stroke-width="1px" opacity="0.25"></line><line x1="433.7165178571429" y1="0" x2="433.7165178571429" y2="377" fill="rgb(0, 0, 0)" stroke="rgb(60, 60, 60)" stroke-width="1px" opacity="0.25"></line><line x1="520.4598214285714" y1="0" x2="520.4598214285714" y2="377" fill="rgb(0, 0, 0)" stroke="rgb(60, 60, 60)" stroke-width="1px" opacity="0.25"></line><line x1="607.203125" y1="0" x2="607.203125" y2="377" fill="rgb(0, 0, 0)" stroke="rgb(60, 60, 60)" stroke-width="1px" opacity="0.25"></line><line x1="693.9464285714286" y1="0" x2="693.9464285714286" y2="377" fill="rgb(0, 0, 0)" stroke="rgb(60, 60, 60)" stroke-width="1px" opacity="0.25"></line><line x1="780.6897321428572" y1="0" x2="780.6897321428572" y2="377" fill="rgb(0, 0, 0)" stroke="rgb(60, 60, 60)" stroke-width="1px" opacity="0.25"></line><line x1="867.4330357142858" y1="0" x2="867.4330357142858" y2="377" fill="rgb(0, 0, 0)" stroke="rgb(60, 60, 60)" stroke-width="1px" opacity="0.25"></line><line x1="954.1763392857142" y1="0" x2="954.1763392857142" y2="377" fill="rgb(0, 0, 0)" stroke="rgb(60, 60, 60)" stroke-width="1px" opacity="0.25"></line><line x1="1040.919642857143" y1="0" x2="1040.919642857143" y2="377" fill="rgb(0, 0, 0)" stroke="rgb(60, 60, 60)" stroke-width="1px" opacity="0.25"></line><line x1="1127.6629464285716" y1="0" x2="1127.6629464285716" y2="377" fill="rgb(0, 0, 0)" stroke="rgb(60, 60, 60)" stroke-width="1px" opacity="0.25"></line><line x1="1214.40625" y1="0" x2="1214.40625" y2="377" fill="rgb(0, 0, 0)" stroke="rgb(60, 60, 60)" stroke-width="1px" opacity="0.25"></line></g><g><line x1="0" y1="377" x2="1214.40625" y2="377" fill="rgb(0, 0, 0)" stroke="rgb(60, 60, 60)" stroke-width="1px" opacity="0.25"></line><line x1="0" y1="339.3" x2="1214.40625" y2="339.3" fill="rgb(0, 0, 0)" stroke="rgb(60, 60, 60)" stroke-width="1px" opacity="0.25"></line><line x1="0" y1="301.59999999999997" x2="1214.40625" y2="301.59999999999997" fill="rgb(0, 0, 0)" stroke="rgb(60, 60, 60)" stroke-width="1px" opacity="0.25"></line><line x1="0" y1="263.9" x2="1214.40625" y2="263.9" fill="rgb(0, 0, 0)" stroke="rgb(60, 60, 60)" stroke-width="1px" opacity="0.25"></line><line x1="0" y1="226.19999999999996" x2="1214.40625" y2="226.19999999999996" fill="rgb(0, 0, 0)" stroke="rgb(60, 60, 60)" stroke-width="1px" opacity="0.25"></line><line x1="0" y1="188.49999999999997" x2="1214.40625" y2="188.49999999999997" fill="rgb(0, 0, 0)" stroke="rgb(60, 60, 60)" stroke-width="1px" opacity="0.25"></line><line x1="0" y1="150.79999999999995" x2="1214.40625" y2="150.79999999999995" fill="rgb(0, 0, 0)" stroke="rgb(60, 60, 60)" stroke-width="1px" opacity="0.25"></line><line x1="0" y1="113.09999999999997" x2="1214.40625" y2="113.09999999999997" fill="rgb(0, 0, 0)" stroke="rgb(60, 60, 60)" stroke-width="1px" opacity="0.25"></line><line x1="0" y1="75.39999999999992" x2="1214.40625" y2="75.39999999999992" fill="rgb(0, 0, 0)" stroke="rgb(60, 60, 60)" stroke-width="1px" opacity="0.25"></line><line x1="0" y1="37.69999999999993" x2="1214.40625" y2="37.69999999999993" fill="rgb(0, 0, 0)" stroke="rgb(60, 60, 60)" stroke-width="1px" opacity="0.25"></line><line x1="0" y1="0" x2="1214.40625" y2="0" fill="rgb(0, 0, 0)" stroke="rgb(60, 60, 60)" stroke-width="1px" opacity="0.25"></line></g></g></g><g><g><line x1="0" y1="339.3" x2="1214.40625" y2="339.3" fill="rgb(0, 0, 0)" stroke="rgb(153, 153, 153)" stroke-width="1.5px"></line></g></g><g><g><line x1="86.74330357142857" y1="0" x2="86.74330357142857" y2="377" fill="rgb(0, 0, 0)" stroke="rgb(153, 153, 153)" stroke-width="1.5px"></line></g></g><g><g><g><g><g><path stroke="rgb(255, 112, 67)" stroke-width="2px" d="M126.64522321428572,-53.88502148163849L128.3800892857143,54.56182715276191L130.11495535714286,28.058279837599912L131.84982142857143,66.26725506018511L133.5846875,-44.72029245105341L140.52415178571428,-21.751919724891536L142.25901785714285,104.50154368373137L143.99388392857145,191.43235660947812L145.72875,209.62335696257193L147.46361607142856,202.30507948714632L149.19848214285716,143.34420834861947L150.93334821428573,43.80875253222388L152.6682142857143,143.5515591331054L154.40308035714284,204.84343289386246L156.1379464285714,241.24899944985307L157.8728125,230.46175513273684L159.60767857142855,250.96355403769138L161.34254464285715,167.0275626044993L163.07741071428572,222.10458050115304L164.81227678571426,244.83874713765L166.54714285714286,246.08064706049507L168.28200892857143,261.33169881943104L170.01687500000003,272.7258190970788L171.75174107142857,257.6036322233976L173.48660714285714,280.88202662349465L175.22147321428574,292.89306001566274L176.95633928571428,278.3852530383786L178.69120535714285,279.6753898277511L180.42607142857145,286.0422335604424L182.1609375,247.06467547992966L183.8958035714286,275.0441954082474L185.63066964285716,296.01361442892204L187.3655357142857,306.07452677653873L189.1004017857143,302.931203944484L190.83526785714287,298.05584871228734L192.5701339285714,248.78151994515036L194.305,276.5084426177846L196.03986607142855,296.49003850177104L197.77473214285715,305.75044104737526L199.50959821428572,301.15886689972865L201.24446428571426,304.97910439594904L202.97933035714286,277.566939671408L204.71419642857143,294.1815312362326L206.44906250000003,305.74890913470017L208.18392857142857,307.9724795990269L209.91879464285714,305.1851281851131L211.65366071428573,307.61469465715277L213.38852678571428,281.7327481336003L215.12339285714285,297.54641608934173L216.85825892857144,310.06116562535954L218.593125,313.47467397932314L220.32799107142858,307.3748367075792L222.06285714285715,307.6271102499579L223.7977232142857,281.4871359581718L225.5325892857143,297.5711727582738L227.26745535714286,310.41332264677885L229.00232142857143,314.42104127944606L230.7371875,308.72701441282686L232.47205357142857,309.85070737078956L234.20691964285714,282.68940730325977L235.94178571428571,298.2080303060344L237.67665178571428,310.8746507890794L239.41151785714285,315.3421062265593L241.14638392857142,310.3910552104977L242.88125000000002,311.24214702824383L244.61611607142856,284.3324037424751L246.35098214285713,299.32914937807226L248.08584821428573,311.50030659490994L249.82071428571427,315.7356827472306L251.55558035714287,310.6323501306754L253.29044642857144,311.567188407677L255.02531249999998,285.02366090279673L256.7601785714286,299.7990369427352L258.4950446428571,311.90781532272837L260.2299107142857,316.0912866482687L261.96477678571426,311.11456160108685L263.69964285714286,312.18699714745094L265.43450892857146,286.0805555349142L267.169375,300.51890215592016L268.90424107142854,312.3135211206555L270.63910714285714,316.41774906898206L272.3739732142857,311.4381284774857L274.1088392857143,312.5034968685518L275.8437053571429,286.8492087569928L277.5785714285714,301.06083458638204L279.3134375,312.74452446403586L281.04830357142856,316.6997954747136L282.7831696428571,311.75677059017823L284.5180357142857,312.69630074686233L286.2529017857143,287.4337896113034L287.9877678571429,301.49116976551136L289.72263392857144,313.04185947892563L291.4575,316.99588677327336L293.1923660714286,312.0994516829394L294.9272321428571,313.0149909527446L296.6620982142857,287.93509934865506L298.3969642857143,301.8477831936699L300.13183035714286,313.28312952194045L301.86669642857146,317.1884210755303L303.6015625,312.33032812054455L305.3364285714286,313.33315363599286L307.07129464285714,288.5118231886531L308.8061607142857,302.2608678312692L310.5410267857143,313.57230074078495L312.2758928571428,317.4518541330492L314.0107589285714,312.65978776773557L315.745625,313.53919634249877L317.4804910714286,289.05123865143696L319.2153571428571,302.6519246955513L320.9502232142857,313.83953244109375L322.6850892857143,317.659113552416L324.41995535714284,312.9244411535343L326.15482142857144,313.87391046556263L327.88968750000004,289.62136667302207L329.6245535714285,303.05296317748554L331.3594196428571,314.11033814308126L333.0942857142857,317.91366730680255L334.82915178571426,313.2339951893326L336.56401785714286,314.1444242054789L338.29888392857146,290.1558114222925L340.03375000000005,303.4395212633474L341.76861607142854,314.3762403388052L343.50348214285714,318.12471932961665L345.23834821428574,313.49890526268854L346.9732142857143,314.4217333509935L348.7080803571429,290.73048004638633L350.4429464285715,303.8479832566543L352.17781249999996,314.6548582820342L353.91267857142856,318.36852569422473L355.64754464285716,313.79986997986646L357.3824107142857,314.69208714195224L359.1172767857143,291.2605769010075L360.8521428571429,304.2303592002653L362.58700892857144,314.91609801885284L364.321875,318.58616756928666L366.0567410714286,314.0695722363789L367.7916071428572,314.98567253525704L369.5264732142857,291.8256897669324L371.2613392857143,304.63369822876757L372.99620535714286,315.1919081479716L374.7310714285714,318.8238468437326L376.4659375,314.36588812860816L378.2008035714286,315.240107324752L379.93566964285714,292.3626671036528L381.67053571428573,305.0205961421678L383.4054017857143,315.4568492179598L385.1402678571428,319.0419355424411L386.8751339285714,314.6378202986705L388.61,315.53215771998015L390.3448660714286,292.9138328412774L392.0797321428571,305.4148348322367L393.8145982142857,315.7258364037236L395.5494642857143,319.2777084575182L397.28433035714284,314.93034852744034L399.01919642857143,315.7948812584073L400.75406250000003,293.448975431397L402.4889285714285,305.79949562243524L404.2237946428571,315.98947426062375L405.9586607142857,319.49381882578314L407.69352678571425,315.20089268955695L409.42839285714285,316.0746395415886L411.16325892857145,293.9911824019595L412.89812500000005,306.1881479482148L414.63299107142853,316.254886893289L416.36785714285713,319.725954797406L418.10272321428573,315.48826486232224L419.8375892857143,316.34024443719443L421.57245535714287,294.51953942257853L423.30732142857147,306.56713634144853L425.04218749999995,316.51441975311764L426.77705357142855,319.9409473522925L428.51191964285715,315.7574150526739L430.2467857142857,316.61470550241864L431.9816517857143,295.05124042566297L433.7165178571429,306.94891936299234L435.45138392857143,316.77535355023014L437.18625,320.16725447829015L438.92111607142857,316.0382712617841L440.65598214285717,316.8760339113333L442.3908482142857,295.57238287626257L444.1257142857143,307.32251822732457L445.86058035714285,317.03114424356113L447.5954464285714,320.3810405758797L449.3303125,316.3057820620554L451.0651785714286,317.1461793217945L452.80004464285713,296.09043807634043L454.53491071428573,307.6949603752785L456.26977678571427,317.28591108441407L458.00464285714287,320.60066354381695L459.7395089285714,316.5790842126766L461.474375,317.4035318027636L463.2092410714286,296.6028504375786L464.94410714285715,308.0623042876803L466.6789732142857,317.53747875993434L468.4138392857143,320.81245697686626L470.14870535714283,316.84403623504295L471.88357142857143,317.66672346284827L473.6184375,297.1067671695178L475.35330357142857,308.4247584154688L477.0881696428571,317.7855488159236L478.8230357142857,321.02501600668813L480.5579017857143,317.1092553835086L482.29276785714285,317.9208412421329L484.02763392857145,297.60789044298724L485.76250000000005,308.7842246386289L487.49736607142853,318.0316828329342L489.23223214285713,321.2338059928031L490.9670982142857,317.37035837451435L492.70196428571427,318.17607765694225L494.43683035714287,298.09808075819024L496.17169642857147,309.1367062454103L497.90656249999995,318.2730186622212L499.64142857142855,321.43951956769047L501.37629464285715,317.62775903200486L503.11116071428575,318.42615828142914L504.8460267857143,298.58513897725254L506.5808928571429,309.4864905114446L508.3157589285715,318.5125535105824L510.05062499999997,321.6438308507578L511.78549107142857,317.88329658834647L513.5203571428572,318.67346907921365L515.2552232142857,299.06168034113335L516.9900892857142,309.82899297128995L518.7249553571429,318.74713665437946L520.4598214285714,321.8435182673022L522.1946875,318.1336863305664L523.9295535714285,318.91827578436187L525.6644196428572,299.5328026328808L527.3992857142857,310.16775770242964L529.1341517857143,318.97923489601175L530.8690178571429,322.04175819223826L532.6038839285715,318.3819681644258L534.33875,319.15787655033944L536.0736160714285,299.99530475582645L537.8084821428571,310.5001319854093L539.5433482142857,319.20693358388496L541.2782142857143,322.23612731035286L543.0130803571428,318.62594111722774L544.7479464285714,319.3963280219L546.4828125,300.4495825113378L548.2176785714286,310.82702874623925L549.9525446428571,319.4310374412196L551.6874107142858,322.42725679896625L553.4222767857143,318.8659400067879L555.1571428571428,319.6285038943382L556.8920089285714,300.89696477411195L558.626875,311.148727424537L560.3617410714286,319.6514784501313L562.0966071428571,322.61617804526765L563.8314732142858,319.10318493891566L565.5663392857142,319.85955888297633L567.3012053571429,301.33448599426583L569.0360714285714,311.46358693938816L570.7709375,319.867419427688L572.5058035714286,322.80027243234707L574.2406696428571,319.33499611802694L575.9755357142858,320.08470011647967L577.7104017857142,301.7652498286377L579.4452678571429,311.7736928777492L581.1801339285714,320.0800410654556L582.915,322.98272369084907L584.6498660714286,319.5643809969166L586.3847321428572,320.30737701036605L588.1195982142857,302.1863594952409L589.8544642857142,312.0767335467355L591.5893303571429,320.28790499806894L593.3241964285714,323.16057531646373L595.0590625,319.78872301233326L596.7939285714286,320.52579360051647L598.5287946428572,302.5993601969254L600.2636607142857,312.37434047970714L601.9985267857143,320.49214616943306L603.7333928571429,323.3354536354681L605.4682589285715,320.0091858031498L607.203125,320.73953856704514L608.9379910714285,303.0039314089514L610.6728571428572,312.66564854994516L612.4077232142857,320.691981294287L614.1425892857143,323.50739163979046L615.8774553571428,320.22621839479973L617.6123214285714,320.9509721769884L619.3471875,303.3991035085317L621.0820535714286,312.9504916085949L622.8169196428572,320.8876086867513L624.5517857142856,323.67463339792226L626.2866517857143,320.4377937797548L628.0215178571428,321.15614221198103L629.7563839285714,303.78630767090016L631.49125,313.2296410225299L633.2261160714286,321.07920128290345L634.9609821428572,323.83991247500364L636.6958482142857,320.6466747668818L638.4307142857142,321.35958193686406L640.1655803571429,304.16404177391854L641.9004464285714,313.50194623135377L643.6353125,321.2662818255436L645.3701785714286,324.0003658183984L647.1050446428571,320.85015515385993L648.8399107142857,321.5570659154404L650.5747767857142,304.5332991974055L652.3096428571429,313.7684482931214L654.0445089285714,321.4493737863363L655.7793750000001,324.15806437081574L657.5142410714286,321.050012946946L659.249107142857,321.75154377138847L660.9839732142857,304.8936658200099L662.7188392857142,314.0284159606829L664.4537053571429,321.6280057200022L666.1885714285714,324.3121415470229L667.9234375000001,321.2456764064803L669.6583035714285,321.94176440626825L671.3931696428571,305.2450721333724L673.1280357142857,314.2821709264343L674.8629017857143,321.80250252715086L676.5977678571429,324.46227747438525L678.3326339285715,321.43661127798663L680.0675000000001,322.12727911275124L681.8023660714285,305.5877966425284L683.5372321428571,314.5297073724062L685.2720982142857,321.9726827488237L687.0069642857143,324.6095236914858L688.7418303571429,321.62396636981543L690.4766964285715,322.3097466744987L692.2115624999999,305.9216320706834L693.9464285714286,314.7709035658366L695.6812946428571,322.13864341359647L697.4161607142858,324.75267749667205L699.1510267857143,321.80652148674824L700.885892857143,322.48701342339234L702.6207589285715,306.24668538477965L704.3556249999999,315.00592375284475L706.0904910714286,322.30035908391295L707.8253571428571,324.8926940038329L709.5602232142858,321.9852201167025L711.2950892857143,322.6610972862875L713.029955357143,306.563094704125L714.7648214285714,315.2347516168329L716.4996874999999,322.4578969942658L718.2345535714286,325.0290522187727L719.9694196428571,322.15952670919313L721.7042857142858,322.8305125689632L723.4391517857143,306.8707919618786L725.1740178571429,315.4574073228177L726.9088839285714,322.61122908561765L728.64375,325.1620429649891L730.3786160714286,322.3297869237664L732.1134821428572,322.996304938955L733.8483482142858,307.1698901844474L735.5832142857143,315.67395956441476L737.3180803571428,322.7604367321852L739.0529464285714,325.29145217443994L740.7878125,322.4957187095798L742.5226785714286,323.15770433114756L744.2575446428572,307.46049086208217L745.9924107142857,315.8844639691454L747.7272767857144,322.9055083246906L749.4621428571428,325.4176340845416L751.1970089285714,322.657740885392L752.931875,323.3155444382039L754.6667410714285,307.7427044798229L756.4016071428572,316.08900438346416L758.1364732142857,323.04655890665657L759.8713392857143,325.5402578964775L761.6062053571428,322.81546537326324L763.3410714285715,323.4689893843214L765.0759375,308.0164929755542L766.8108035714286,316.28755840898754L768.5456696428572,323.18351513114635L770.2805357142856,325.6596631882426L772.0154017857143,322.9693179961867L773.7502678571428,323.61893280319583L775.4851339285714,308.2821011093465L777.22,316.4803045015328L778.9548660714286,323.31655187950076L780.6897321428572,325.7756169466036L782.4245982142857,323.1189675920297L784.1594642857142,323.7646050071695L785.8943303571428,308.5395375541436L787.6291964285714,316.6672267983496L789.3640625,323.4455988483913L791.0989285714286,325.8884715478647L792.8337946428571,323.2648801403174L794.5686607142857,323.9069004629119L796.3035267857142,308.78902123665443L798.0383928571429,316.84850800509753L799.7732589285714,323.57084729396576L801.5081250000001,325.997909004352L803.2429910714286,323.40662609459025L804.977857142857,324.0449171582468L806.7127232142857,309.03050250162823L808.4475892857142,317.0240832177651L810.1824553571429,323.69217839660826L811.9173214285714,326.1043508930081L813.6521875000001,323.54477264322037L815.3870535714285,324.17973975645197L817.121919642857,309.26433546025567L818.8567857142857,317.1942417080753L820.5916517857142,323.8098692963928L822.3265178571429,326.20743902939023L824.0613839285714,323.67879502219307L825.7962500000001,324.3102875434617L827.5311160714285,309.4903913248411L829.2659821428571,317.358831592831L831.0008482142857,323.9237208975033L832.7357142857143,326.3077035069384L834.4705803571429,323.8094413956206L836.2054464285715,324.4379192279306L837.9403124999999,309.70915878956924L839.6751785714285,317.5182786320435L841.4100446428571,324.03413480490576L843.1449107142857,326.4046361106344L844.8797767857143,323.93594951552643L846.6146428571429,324.5611574905589L848.3495089285715,309.9202833924055L850.0843749999999,317.67223672722L851.8192410714286,324.1407396551147L853.5541071428571,326.4989312936321L855.2889732142858,324.0593671715307L857.0238392857143,324.68188709617317L858.758705357143,310.1245273282046L860.4935714285714,317.8213668382676L862.2284374999999,324.2441527836134L863.9633035714286,326.589875628829L865.6981696428571,324.1785307348326L867.4330357142858,324.7979624222457L869.1679017857143,310.3212527743795L870.9027678571429,317.9650536621794L872.6376339285714,324.3437447493401L874.3725,326.67847613617135L876.1073660714286,324.2950556101984L877.8422321428571,324.9121749653253L879.5770982142858,310.5117290984143L881.3119642857143,318.10440597808474L883.0468303571428,324.4405251256536L884.7816964285714,326.7636339273697L886.5165625,324.4070562178319L888.2514285714286,325.0211963154033L889.9862946428572,310.6945543833989L891.7211607142857,318.23815867219L893.4560267857144,324.5333176833598L895.1908928571428,326.84682737990875L896.9257589285714,324.51708076683786L898.660625,325.12933091150956L900.3954910714286,310.8720075838029L902.1303571428572,318.36829048504546L903.8652232142857,324.6238650767223L905.6000892857143,326.92633578938046L907.3349553571428,324.6219958884227L909.0698214285715,325.23129692881673L910.8046875,311.0413584904931L912.5395535714285,318.4923684690539L914.2744196428572,324.71000115054676L916.0092857142857,327.00447302860033L917.7441517857143,324.7260400304225L919.4790178571428,325.33399162168405L921.2138839285714,311.20666821219083L922.94875,318.6139572258595L924.6836160714286,324.79480892853945L926.4184821428572,327.0784255311143L928.1533482142856,324.82380154614907L929.8882142857143,325.4286977299449L931.6230803571428,311.3628503473265L933.3579464285714,318.72850129189567L935.0928125,324.87432691075173L936.8276785714286,327.1519818641559L938.5625446428572,324.92260997882136L940.2974107142857,325.52686762928977L942.0322767857142,311.51722925142207L943.7671428571429,318.84250017659633L945.5020089285714,324.9541113771576L947.236875,327.22032590652816L948.9717410714286,325.0127865318488L950.7066071428571,325.61362051749416L952.4414732142857,311.65997584955653L954.1763392857142,318.9471843665738L955.9112053571429,325.02669653542114L957.6460714285714,327.28981888062555L959.3809375000001,325.1073935061577L961.1158035714286,325.7086256964062L962.850669642857,311.8051809509802L964.5855357142857,319.05504258531454L966.3204017857142,325.1025429262798L968.0552678571429,327.3522075782541L969.7901339285714,325.18875480078225L971.5250000000001,325.78599155319705L973.2598660714285,311.93347021533833L974.9947321428571,319.14883512415014L976.7295982142857,325.1672836781834L978.4644642857143,327.4184984089321L980.1993303571429,325.28080234913966L981.9341964285715,325.8801602215592L983.6690625000001,312.07235905183995L985.4039285714285,319.25296151685836L987.1387946428571,325.2410235169232L988.8736607142857,327.47405788436794L990.6085267857143,325.350400531707L992.3433928571429,325.94472977976073L994.0782589285715,312.1830640075956L995.8131249999999,319.33300794328994L997.5479910714286,325.2955894539978L999.2828571428571,327.537904791743L1001.0177232142858,325.441826581177L1002.7525892857143,326.04115359674097L1004.487455357143,312.3199809347254L1006.2223214285715,319.4372818920094L1007.9571874999999,325.3701323323669L1009.6920535714286,327.58365882810784L1011.4269196428571,325.4914260563829L1013.1617857142858,326.0851327417093L1014.8966517857143,312.4054968672795L1016.631517857143,319.4968003708584L1018.3663839285714,325.408905086761L1020.1012499999999,327.64546740346213L1021.8361160714286,325.5827162266761L1023.5709821428571,326.18818383896104L1025.3058482142858,312.54826332701L1027.0407142857143,319.60807866702845L1028.7755803571429,325.4889729364052L1030.5104464285714,327.6743694023261L1032.2453125,325.5905112217572L1033.9801785714285,326.19304911800214L1035.7150446428573,312.5891513795882L1037.4499107142858,319.6300225114577L1039.1847767857143,325.4977622353455L1040.919642857143,327.72889430316064L1042.6545089285714,325.6696084874937L1044.389375,326.300678276705L1046.1242410714285,312.7466532796992L1047.859107142857,319.7566465783109L1049.5939732142858,325.5879258521845L1051.3288392857144,327.7166265820114L1053.063705357143,325.5654441386531L1054.7985714285714,326.21229506285346L1056.5334375,312.6907705939269L1058.2683035714285,319.6949646395615L1060.003169642857,325.52750542510665L1061.7380357142858,327.7360860456707L1063.4729017857142,325.56013274338056L1065.207767857143,326.289634985538L1066.9426339285715,312.85626181054806L1068.6775,319.832409295065L1070.4123660714286,325.61525464745574L1072.147232142857,327.59169781565214L1073.8820982142856,325.104019875574L1075.6169642857142,325.9414308567891L1077.351830357143,312.55709213156547L1079.0866964285715,319.55891527372404L1080.8215625,325.3702933133225L1082.5564285714286,327.4460727833232L1084.291294642857,324.6704364050937L1086.0261607142857,325.7961499064404L1087.7610267857142,312.64721936538L1089.4958928571427,319.6284902064146L1091.2307589285715,325.3617195812902L1092.965625,326.8905405610098L1094.7004910714286,323.03569350668675L1096.4353571428571,324.63142332138017L1098.1702232142857,311.5992076566153L1099.9050892857142,318.69454631812994L1101.6399553571428,324.5229754697241L1103.3748214285715,325.98229075059413L1105.1096875,320.73515667871084L1106.8445535714286,323.3565009573054L1108.5794196428571,311.0434394817547L1110.3142857142857,318.2173428646789L1112.0491517857142,323.9147194986951L1113.7840178571428,323.72269585543904L1115.5188839285715,314.6064635218026L1117.25375,319.2421328986379L1118.9886160714284,307.73777396326915L1120.7234821428572,315.2546077169871L1122.4583482142857,321.1848839274098L1124.1932142857142,320.2095519508675L1125.9280803571428,304.8065775145295L1127.6629464285716,313.3931787292184" style="fill: none;" fill="none"></path></g></g></g></g><g opacity="0.2"><g><g><g><path stroke="rgb(255, 112, 67)" stroke-width="2px" d="M88.47816964285714,-6869.078310501576L90.21303571428572,199.0555904416367L91.9479017857143,-4023.3331903040416L109.2965625,-2286.6134911000736L111.03142857142858,37.282201538979905L112.76629464285715,170.4091041192412L114.50116071428572,-66.07750236690055L119.70575892857143,-2642.3617913544185L121.44062500000001,191.3743610337376L123.17549107142857,212.7325172612443L124.91035714285714,285.69161817030977L126.64522321428572,232.05859729386864L128.3800892857143,217.23081544805314L130.11495535714286,-11.696852759271962L131.84982142857143,123.58055495023723L133.5846875,-211.20132973119632L137.05441964285714,-307.3051986441018L138.7892857142857,43.22945474013676L140.52415178571428,155.19095094241197L142.25901785714285,293.8817136764526L143.99388392857145,321.828565620305L145.72875,236.90985618922858L147.46361607142856,191.32766358852382L149.19848214285716,54.9029031611978L150.93334821428573,-105.49442965239297L152.6682142857143,293.1657681085169L154.40308035714284,296.7812431936152L156.1379464285714,295.8573491621762L157.8728125,214.28088867869224L159.60767857142855,281.71625237045805L161.34254464285715,41.12357551529993L163.07741071428572,304.7201073222793L164.81227678571426,278.93999708648767L166.54714285714286,247.94349694456903L168.28200892857143,284.20827645640816L170.01687500000003,289.8169995129108L171.75174107142857,234.92035191338508L173.48660714285714,315.79961822316983L175.22147321428574,310.9096101037692L176.95633928571428,256.6235425725579L178.69120535714285,281.6105950118042L180.42607142857145,295.5924991594627L182.1609375,188.59833835922177L183.8958035714286,317.0134753006976L185.63066964285716,327.4677429599222L187.3655357142857,321.1658952979604L189.1004017857143,298.2162196964025L190.83526785714287,290.742815863993L192.5701339285714,174.87002679444845L194.305,318.0988266267348L196.03986607142855,326.46243232775015L197.77473214285715,319.64104486578145L199.50959821428572,294.2715056782588L201.24446428571426,310.70946064027953L202.97933035714286,236.44869258459656L204.71419642857143,319.1034185834695L206.44906250000003,323.09997598240153L208.18392857142857,311.30783529551695L209.91879464285714,301.0041010642424L211.65366071428573,311.2590443652123L213.38852678571428,242.90982834827153L215.12339285714285,321.2669180229539L216.85825892857144,328.83328992938624L218.593125,318.5949365102686L220.32799107142858,298.2250807999633L222.06285714285715,308.00552056352603L223.7977232142857,242.27717452049254L225.5325892857143,321.6972279584268L227.26745535714286,329.6765474795364L229.00232142857143,320.43261922844687L230.7371875,300.18597411289807L232.47205357142857,311.5362468077335L234.20691964285714,241.94745720196514L235.94178571428571,321.4859648101963L237.67665178571428,329.874581513647L239.41151785714285,322.04328938277905L241.14638392857142,302.9644786864053L242.88125000000002,312.51878475486296L244.61611607142856,243.96778881382195L246.35098214285713,321.82426783146803L248.08584821428573,329.75704242016656L249.82071428571427,322.08874697571156L251.55558035714287,302.9773512058425L253.29044642857144,312.9694458231795L255.02531249999998,245.20836964547632L256.7601785714286,321.9621010026429L258.4950446428571,330.0709828927182L260.2299107142857,322.36649363657926L261.96477678571426,303.64947403031397L263.69964285714286,313.7956504669972L265.43450892857146,246.92089311610906L267.169375,322.1764220874291L268.90424107142854,330.0054495677585L270.63910714285714,322.5740909914719L272.3739732142857,303.96869759024116L274.1088392857143,314.101549455151L275.8437053571429,248.36777658965437L277.5785714285714,322.3782733304659L279.3134375,330.2700592805166L281.04830357142856,322.63270199073014L282.7831696428571,304.3422332633752L284.5180357142857,314.1055959818885L286.2529017857143,249.54002290796487L287.9877678571429,322.5772399968235L289.72263392857144,330.36789404904704L291.4575,322.9269277147949L293.1923660714286,304.7547990474384L294.9272321428571,314.3882998574525L296.6620982142857,250.31526194252072L298.3969642857143,322.71680896119216L300.13183035714286,330.4361490143463L301.86669642857146,323.0463584059151L303.6015625,305.0431886880658L305.3364285714286,314.8373919091653L307.07129464285714,251.27982751764355L308.8061607142857,322.8844347951934L310.5410267857143,330.5394501050585L312.2758928571428,323.2711842214456L314.0107589285714,305.47168821976516L315.745625,314.8583092046436L317.4804910714286,252.3193021148443L319.2153571428571,323.0529537617229L320.9502232142857,330.62094405940735L322.6850892857143,323.38848521939946L324.41995535714284,305.82243255521166L326.15482142857144,315.29811443360524L327.88968750000004,253.24255098421125L329.6245535714285,323.20035793418066L331.3594196428571,330.69640059147497L333.0942857142857,323.6186610523844L334.82915178571426,306.2144870131276L336.56401785714286,315.5100677296985L338.29888392857146,254.17289224751292L340.03375000000005,323.3650860249298L341.76861607142854,330.78131895199186L343.50348214285714,323.74743781583385L345.23834821428574,306.5601841622963L346.9732142857143,315.80597548345105L348.7080803571429,255.1936000894755L350.4429464285715,323.52423807205633L352.17781249999996,330.86517082010397L353.91267857142856,323.9390268125106L355.64754464285716,306.94688640832896L357.3824107142857,316.03041288508103L359.1172767857143,256.1133115395903L360.8521428571429,323.685032649152L362.58700892857144,330.94470624673414L364.321875,324.0912718949374L366.0567410714286,307.29467923701736L367.7916071428572,316.35982298357413L369.5264732142857,257.08571561444546L371.2613392857143,323.8457109215204L372.99620535714286,331.02922302677763L374.7310714285714,324.27175488737413L376.4659375,307.6789500559214L378.2008035714286,316.55143611896784L379.93566964285714,258.046506772004L381.67053571428573,324.0074896999402L383.4054017857143,331.1112288316479L385.1402678571428,324.4195650291629L386.8751339285714,308.03164743301454L388.61,316.87366385194474L390.3448660714286,258.98634552322324L392.0797321428571,324.1663378186757L393.8145982142857,331.1923387609539L395.5494642857143,324.6055165382102L397.28433035714284,308.4093086323235L399.01919642857143,317.09168035485783L400.75406250000003,259.9301166908815L402.4889285714285,324.32527590899264L404.2237946428571,331.2744422179065L405.9586607142857,324.7503356735222L407.69352678571425,308.76150348521764L409.42839285714285,317.38525981963613L411.16325892857145,260.86599669251586L412.89812500000005,324.48359626759776L414.63299107142853,331.3549953109003L416.36785714285713,324.93255665358157L418.10272321428573,309.1317299596965L419.8375892857143,317.6182137995027L421.57245535714287,261.7884819006547L423.30732142857147,324.63853171975353L425.04218749999995,331.43534487062135L426.77705357142855,325.08073875105475L428.51191964285715,309.4821166032459L430.2467857142857,317.9006411770359L431.9816517857143,262.7060428105294L433.7165178571429,324.79543776898646L435.45138392857143,331.51500483108686L437.18625,325.2551058703801L438.92111607142857,309.844796437025L440.65598214285717,318.1326778856572L442.3908482142857,263.6169063236564L444.1257142857143,324.94772125391756L445.86058035714285,331.594083267916L447.5954464285714,325.4058850743575L449.3303125,310.1928942913189L451.0651785714286,318.40677521140316L452.80004464285713,264.5068262081593L454.53491071428573,325.1017438236857L456.26977678571427,331.6723371481174L458.00464285714287,325.57279223292136L459.7395089285714,310.54671521596606L461.474375,318.6402031878941L463.2092410714286,265.40182838980104L464.94410714285715,325.25148506283296L466.6789732142857,331.7502404683153L468.4138392857143,325.7249243022641L470.14870535714283,310.891405122308L471.88357142857143,318.9007543045562L473.6184375,266.2668327295221L475.35330357142857,325.4017452843953L477.0881696428571,331.8267344166059L478.8230357142857,325.88421679283493L480.5579017857143,311.23561444873917L482.29276785714285,319.13822003006936L484.02763392857145,267.1384642442688L485.76250000000005,325.5487259320915L487.49736607142853,331.9028701243922L489.23223214285713,326.0369907326065L490.9670982142857,311.5751869470812L492.70196428571427,319.38465658058414L494.43683035714287,267.9810854100622L496.17169642857147,325.6946444762405L497.90656249999995,331.97748728743755L499.64142857142855,326.1892709258944L501.37629464285715,311.91011822847645L503.11116071428575,319.62375715556556L504.8460267857143,268.82361002098764L506.5808928571429,325.8385178127326L508.3157589285715,332.05164800928907L510.05062499999997,326.34074686102105L511.78549107142857,312.2424951947294L513.5203571428572,319.85872781551444L515.2552232142857,269.6439972340129L516.9900892857142,325.9799619165249L518.7249553571429,332.12435217901367L520.4598214285714,326.48809068668635L522.1946875,312.56893842546265L523.9295535714285,320.0951599650551L525.6644196428572,270.4545929056592L527.3992857142857,326.12019030675293L529.1341517857143,332.19645068638494L530.8690178571429,326.63554313657806L532.6038839285715,312.8922831227071L534.33875,320.3217391292099L536.0736160714285,271.25144706405695L537.8084821428571,326.2573728297837L539.5433482142857,332.2671359815984L541.2782142857143,326.7799179000547L543.0130803571428,313.21066182754004L544.7479464285714,320.5519083789084L546.4828125,272.0294642454944L548.2176785714286,326.39319809859154L549.9525446428571,332.3370504836901L551.6874107142858,326.9215858355863L553.4222767857143,313.5239648185205L555.1571428571428,320.7723497256637L556.8920089285714,272.79965609377246L558.626875,326.5263714001747L560.3617410714286,332.40560498852284L562.0966071428571,327.0632274379721L563.8314732142858,313.83369527938777L565.5663392857142,320.9941197990673L567.3012053571429,273.54687666120003L569.0360714285714,326.6572383570718L570.7709375,332.47316816013773L572.5058035714286,327.19955193933566L574.2406696428571,314.13708164654673L575.9755357142858,321.2092561141588L577.7104017857142,274.2860743968747L579.4452678571429,326.78635745141656L581.1801339285714,332.5395633470151L582.915,327.33674762893935L584.6498660714286,314.4368669560179L586.3847321428572,321.4218710305402L588.1195982142857,275.0048332225531L589.8544642857142,326.9122946239775L591.5893303571429,332.6046621750691L593.3241964285714,327.46958079405596L595.0590625,314.73094455613756L596.7939285714286,321.6313994827913L598.5287946428572,275.7097100915387L600.2636607142857,327.0368109038798L601.9985267857143,332.66885470402195L603.7333928571429,327.6004148345208L605.4682589285715,315.01978405467236L607.203125,321.83506771288813L608.9379910714285,276.4005206718109L610.6728571428572,327.1582242614357L612.4077232142857,332.73148041079986L614.1425892857143,327.73050715804567L615.8774553571428,315.30445852731356L617.6123214285714,322.0381028502714L619.3471875,277.0713005058467L621.0820535714286,327.2775737586897L622.8169196428572,332.793284303986L624.5517857142856,327.8551704646787L626.2866517857143,315.5825343525037L628.0215178571428,322.2336648603203L629.7563839285714,277.73155585927884L631.49125,327.3946410499746L633.2261160714286,332.8535416734638L634.9609821428572,327.98097926315387L636.6958482142857,315.8568182046991L638.4307142857142,322.42894269183745L640.1655803571429,278.3707315295003L641.9004464285714,327.50880291750656L643.6353125,332.91278521682835L645.3701785714286,328.1014918076806L647.1050446428571,316.12483915705235L648.8399107142857,322.61743205781096L650.5747767857142,278.9976491203531L652.3096428571429,327.6211719366955L654.0445089285714,332.97076202615864L655.7793750000001,328.22110024753493L657.5142410714286,316.3879358111415L659.249107142857,322.8038400080521L660.9839732142857,279.606848892942L662.7188392857142,327.7305411716923L664.4537053571429,333.0273903589812L666.1885714285714,328.338345287554L667.9234375000001,316.64597869566643L669.6583035714285,322.9858964059502L671.3931696428571,280.2000337240286L673.1280357142857,327.8378191160271L674.8629017857143,333.0829999282258L676.5977678571429,328.4519398952369L678.3326339285715,316.8981119833887L680.0675000000001,323.1632808648981L681.8023660714285,280.7785729371942L683.5372321428571,327.942573467223L685.2720982142857,333.13714581344976L687.0069642857143,328.56478510547896L688.7418303571429,317.14563038730995L690.4766964285715,323.3384171315236L692.2115624999999,281.3394601649604L693.9464285714286,328.0448108085664L695.6812946428571,333.1902531852364L697.4161607142858,328.6737286212854L699.1510267857143,317.3872874718625L700.885892857143,323.50775132835844L702.6207589285715,281.8861933268606L704.3556249999999,328.14478130494246L706.0904910714286,333.2420120805153L707.8253571428571,328.7811963837128L709.5602232142858,317.6240092860069L711.2950892857143,323.674913040665L713.029955357143,282.4160908308811L714.7648214285714,328.24223698589486L716.4996874999999,333.29261506041513L718.2345535714286,328.88578505553306L719.9694196428571,317.8552384448238L721.7042857142858,323.83699135861826L723.4391517857143,282.9312110512517L725.1740178571429,328.3373303642264L726.9088839285714,333.34196172981757L728.64375,328.9882637840463L730.3786160714286,318.0814028619323L732.1134821428572,323.99608196173796L733.8483482142858,283.43026805268596L735.5832142857143,328.4300636343658L737.3180803571428,333.39015248384095L739.0529464285714,329.087975337822L740.7878125,318.3021185122896L742.5226785714286,324.1506827634992L744.2575446428572,283.91467065848406L745.9924107142857,328.52042362974026L747.7272767857144,333.43707485800843L749.4621428571428,329.18582272431814L751.1970089285714,318.51790108666756L752.931875,324.30224976742176L754.6667410714285,284.3834445422515L756.4016071428572,328.6084542389261L758.1364732142857,333.4828906914452L759.8713392857143,329.28080638120883L761.6062053571428,318.7282765884418L763.3410714285715,324.4492754009087L765.0759375,284.8377483624033L766.8108035714286,328.69415655913764L768.5456696428572,333.5274502143846L770.2805357142856,329.37388527388686L772.0154017857143,318.9338002081029L773.7502678571428,324.5933550137095L775.4851339285714,285.2768535685725L777.22,328.77760958981236L778.9548660714286,333.57092294645264L780.6897321428572,329.4642145472579L782.4245982142857,319.1339935601689L784.1594642857142,324.7330611298792L785.8943303571428,285.70193637460466L787.6291964285714,328.85876066465863L789.3640625,333.6131569234538L791.0989285714286,329.5527805970749L792.8337946428571,319.3294930289965L794.5686607142857,324.86993094680366L796.3035267857142,286.1122023972682L798.0383928571429,328.9377381577622L799.7732589285714,333.654356227268L801.5081250000001,329.6385015699314L803.2429910714286,319.5197017299477L804.977857142857,325.0023537537316L806.7127232142857,286.5088805167004L808.4475892857142,329.0144542919705L810.1824553571429,333.694321164873L811.9173214285714,329.72260963760783L813.6521875000001,319.70540526853875L815.3870535714285,325.13219042629936L817.121919642857,286.89122901596124L818.8567857142857,329.08910107980483L820.5916517857142,333.73331067886903L822.3265178571429,329.80379362888635L824.0613839285714,319.88582901139745L825.7962500000001,325.2575263253646L827.5311160714285,287.2605469969101L829.2659821428571,329.1614919948159L831.0008482142857,333.77105485451176L832.7357142857143,329.88367742109114L834.4705803571429,320.06204822864385L836.2054464285715,325.3806359763956L837.9403124999999,287.6160181320272L839.6751785714285,329.23195839575493L841.4100446428571,333.8079190641991L843.1449107142857,329.96038806922735L844.8797767857143,320.2329196228646L846.6146428571429,325.4989694531076L848.3495089285715,287.95897224517535L850.0843749999999,329.30016672944186L851.8192410714286,333.8434940469568L853.5541071428571,330.03621875140817L855.2889732142858,320.4000209883787L857.0238392857143,325.6156669831369L858.758705357143,288.28848767625163L860.4935714285714,329.3666261033621L862.2284374999999,333.87833170163213L863.9633035714286,330.1084598966525L865.6981696428571,320.56151339383797L867.4330357142858,325.7271099533653L869.1679017857143,288.6061883025802L870.9027678571429,329.43075499387925L872.6376339285714,333.9117813800811L874.3725,330.1805732164183L876.1073660714286,320.719924821239L877.8422321428571,325.83785399801565L879.5770982142858,288.9110602980479L881.3119642857143,329.49342129759026L883.0468303571428,333.9447038470069L884.7816964285714,330.248297129944L886.5165625,320.87218965352514L888.2514285714286,325.9424064617604L889.9862946428572,289.20459148539226L891.7211607142857,329.5535651053768L893.4560267857144,333.97605620011456L895.1908928571428,330.3170919247321L896.9257589285714,321.02246084723157L898.660625,326.0477061285172L900.3954910714286,289.48602259224276L902.1303571428572,329.61271483690945L903.8652232142857,334.00722696423765L905.6000892857143,330.38004185836763L907.3349553571428,321.1654860369861L909.0698214285715,326.14524848940783L910.8046875,289.75645083300765L912.5395535714285,329.668883436895L914.2744196428572,334.03645017278615L916.0092857142857,330.44618084568066L917.7441517857143,321.3083905331558L919.4790178571428,326.2459190085763L921.2138839285714,290.01568309795107L922.94875,329.7248907463625L924.6836160714286,334.06608648255934L926.4184821428572,330.50385043497664L928.1533482142856,321.4418655687012L929.8882142857143,326.3360420056386L931.6230803571428,290.2640792733989L933.3579464285714,329.7769777087495L935.0928125,334.09306533903583L936.8276785714286,330.56846429426224L938.5625446428572,321.57855215081946L940.2974107142857,326.4332541049924L942.0322767857142,290.5027716846205L943.7671428571429,329.8304065643577L945.5020089285714,334.12152817799944L947.236875,330.61964770058404L948.9717410714286,321.70147746982985L950.7066071428571,326.51487149596215L952.4414732142857,290.7295088476501L954.1763392857142,329.8779971420998L955.9112053571429,334.1459647886921L957.6460714285714,330.68450239843224L959.3809375000001,321.8337554444559L961.1158035714286,326.6104739817791L962.850669642857,290.950013832841L964.5855357142857,329.9298350368161L966.3204017857142,334.17379343772774L968.0552678571429,330.72670455621557L969.7901339285714,321.94357563457453L971.5250000000001,326.6818466818193L973.2598660714285,291.15468820855017L974.9947321428571,329.97188248736785L976.7295982142857,334.19495650923346L978.4644642857143,330.79532050505514L980.1993303571429,322.074258259451L981.9341964285715,326.7791970301885L983.6690625000001,291.360657297261L985.4039285714285,330.02386521438603L987.1387946428571,334.2231165170204L988.8736607142857,330.82360943553505L990.6085267857143,322.1649145027157L992.3433928571429,326.8362236518413L994.0782589285715,291.54056534934784L995.8131249999999,330.05792384683156L997.5479910714286,334.23946172005964L999.2828571428571,330.9013777983608L1001.0177232142858,322.297709265328L1002.7525892857143,326.9401441200869L1004.487455357143,291.738221941702L1006.2223214285715,330.11323332793546L1007.9571874999999,334.26940799290315L1009.6920535714286,330.90394857171924L1011.4269196428571,322.35307689879556L1013.1617857142858,326.9756927696988L1014.8966517857143,291.8860430556349L1016.631517857143,330.1337556262268L1018.3663839285714,334.2770621606149L1020.1012499999999,331.00031087851386L1021.8361160714286,322.48858946149704L1023.5709821428571,327.0963852573885L1025.3058482142858,292.08838255908336L1027.0407142857143,330.19780167705613L1028.7755803571429,334.31031434047037L1030.5104464285714,330.95246410120745L1032.2453125,322.4647239509039L1033.9801785714285,327.0968559623696L1035.7150446428573,292.1833047719672L1037.4499107142858,330.19132920926205L1039.1847767857143,334.2993718211772L1040.919642857143,331.07559240488337L1042.6545089285714,322.58067976399326L1044.389375,327.247282960522L1046.1242410714285,292.41561578419055L1047.859107142857,330.2716365262284L1049.5939732142858,334.3348447629949L1051.3288392857144,330.90967767675176L1053.063705357143,322.33867047361565L1054.7985714285714,327.18257144915407L1056.5334375,292.4084838905371L1058.2683035714285,330.2012557080132L1060.003169642857,334.2763166034245L1061.7380357142858,331.04895697651665L1063.4729017857142,322.29620278994554L1065.207767857143,327.38388834877406L1066.9426339285715,292.70620204806323L1068.6775,330.2966305218404L1070.4123660714286,334.2895226760418L1072.147232142857,330.5563625679468L1073.8820982142856,321.3725029654568L1075.6169642857142,327.19754732861185L1077.351830357143,292.48058404373L1079.0866964285715,330.06164998696187L1080.8215625,334.0873603727203L1082.5564285714286,330.5597419883241L1084.291294642857,320.5069818377495L1086.0261607142857,327.48472015846056L1087.7610267857142,292.92382355378936L1089.4958928571427,330.1003964679665L1091.2307589285715,333.9615636436036L1092.965625,329.1837720305892L1094.7004910714286,317.2534229252022L1096.4353571428571,327.0250180434203L1098.1702232142857,292.05088415946807L1099.9050892857142,329.3375543104019L1101.6399553571428,333.2656191971153L1103.3748214285715,328.1712636718992L1105.1096875,312.86445557088587L1106.8445535714286,327.2885173751973L1108.5794196428571,292.5738472684286L1110.3142857142857,328.9781979390653L1112.0491517857142,332.46078444971937L1113.7840178571428,323.43466039055494L1115.5188839285715,300.93211502134795L1117.25375,326.1956369638909L1118.9886160714284,290.48123556021596L1120.7234821428572,326.529858347564L1122.4583482142857,330.08029824304396L1124.1932142857142,318.7465539860539L1125.9280803571428,281.70211586002256L1127.6629464285716,326.2730805512518" style="fill: none;" fill="none"></path></g></g></g></g></g></g><g transform="translate(58, 377)" clip-path="url(#clip_1)"><clipPath id="clip_1"><rect width="1214" height="23"></rect></clipPath><g><g><line x1="0" y1="0" x2="0" y2="5" style="visibility: inherit;" fill="rgb(0, 0, 0)" stroke="rgb(204, 204, 204)" stroke-width="1px"></line><line x1="86.74330357142857" y1="0" x2="86.74330357142857" y2="5" style="visibility: inherit;" fill="rgb(0, 0, 0)" stroke="rgb(204, 204, 204)" stroke-width="1px"></line><line x1="173.48660714285714" y1="0" x2="173.48660714285714" y2="5" style="visibility: inherit;" fill="rgb(0, 0, 0)" stroke="rgb(204, 204, 204)" stroke-width="1px"></line><line x1="260.2299107142857" y1="0" x2="260.2299107142857" y2="5" style="visibility: inherit;" fill="rgb(0, 0, 0)" stroke="rgb(204, 204, 204)" stroke-width="1px"></line><line x1="346.9732142857143" y1="0" x2="346.9732142857143" y2="5" style="visibility: inherit;" fill="rgb(0, 0, 0)" stroke="rgb(204, 204, 204)" stroke-width="1px"></line><line x1="433.7165178571429" y1="0" x2="433.7165178571429" y2="5" style="visibility: inherit;" fill="rgb(0, 0, 0)" stroke="rgb(204, 204, 204)" stroke-width="1px"></line><line x1="520.4598214285714" y1="0" x2="520.4598214285714" y2="5" style="visibility: inherit;" fill="rgb(0, 0, 0)" stroke="rgb(204, 204, 204)" stroke-width="1px"></line><line x1="607.203125" y1="0" x2="607.203125" y2="5" style="visibility: inherit;" fill="rgb(0, 0, 0)" stroke="rgb(204, 204, 204)" stroke-width="1px"></line><line x1="693.9464285714286" y1="0" x2="693.9464285714286" y2="5" style="visibility: inherit;" fill="rgb(0, 0, 0)" stroke="rgb(204, 204, 204)" stroke-width="1px"></line><line x1="780.6897321428572" y1="0" x2="780.6897321428572" y2="5" style="visibility: inherit;" fill="rgb(0, 0, 0)" stroke="rgb(204, 204, 204)" stroke-width="1px"></line><line x1="867.4330357142858" y1="0" x2="867.4330357142858" y2="5" style="visibility: inherit;" fill="rgb(0, 0, 0)" stroke="rgb(204, 204, 204)" stroke-width="1px"></line><line x1="954.1763392857142" y1="0" x2="954.1763392857142" y2="5" style="visibility: inherit;" fill="rgb(0, 0, 0)" stroke="rgb(204, 204, 204)" stroke-width="1px"></line><line x1="1040.919642857143" y1="0" x2="1040.919642857143" y2="5" style="visibility: inherit;" fill="rgb(0, 0, 0)" stroke="rgb(204, 204, 204)" stroke-width="1px"></line><line x1="1127.6629464285716" y1="0" x2="1127.6629464285716" y2="5" style="visibility: inherit;" fill="rgb(0, 0, 0)" stroke="rgb(204, 204, 204)" stroke-width="1px"></line><line x1="1214.40625" y1="0" x2="1214.40625" y2="5" style="visibility: inherit;" fill="rgb(0, 0, 0)" stroke="rgb(204, 204, 204)" stroke-width="1px"></line></g><g transform="translate(0, 8)"><text x="0" y="0" dx="0em" dy="0.95em" style="text-anchor: middle; visibility: hidden; font-family: &quot;Helvetica Neue&quot;, sans-serif; font-size: 12px; font-weight: 200;" fill="rgb(50, 49, 63)" stroke="none" stroke-width="1px">-50</text><text x="86.74330357142857" y="0" dx="0em" dy="0.95em" style="text-anchor: middle; visibility: inherit; font-family: &quot;Helvetica Neue&quot;, sans-serif; font-size: 12px; font-weight: 200;" fill="rgb(50, 49, 63)" stroke="none" stroke-width="1px">0</text><text x="173.48660714285714" y="0" dx="0em" dy="0.95em" style="text-anchor: middle; visibility: inherit; font-family: &quot;Helvetica Neue&quot;, sans-serif; font-size: 12px; font-weight: 200;" fill="rgb(50, 49, 63)" stroke="none" stroke-width="1px">50</text><text x="260.2299107142857" y="0" dx="0em" dy="0.95em" style="text-anchor: middle; visibility: inherit; font-family: &quot;Helvetica Neue&quot;, sans-serif; font-size: 12px; font-weight: 200;" fill="rgb(50, 49, 63)" stroke="none" stroke-width="1px">100</text><text x="346.9732142857143" y="0" dx="0em" dy="0.95em" style="text-anchor: middle; visibility: inherit; font-family: &quot;Helvetica Neue&quot;, sans-serif; font-size: 12px; font-weight: 200;" fill="rgb(50, 49, 63)" stroke="none" stroke-width="1px">150</text><text x="433.7165178571429" y="0" dx="0em" dy="0.95em" style="text-anchor: middle; visibility: inherit; font-family: &quot;Helvetica Neue&quot;, sans-serif; font-size: 12px; font-weight: 200;" fill="rgb(50, 49, 63)" stroke="none" stroke-width="1px">200</text><text x="520.4598214285714" y="0" dx="0em" dy="0.95em" style="text-anchor: middle; visibility: inherit; font-family: &quot;Helvetica Neue&quot;, sans-serif; font-size: 12px; font-weight: 200;" fill="rgb(50, 49, 63)" stroke="none" stroke-width="1px">250</text><text x="607.203125" y="0" dx="0em" dy="0.95em" style="text-anchor: middle; visibility: inherit; font-family: &quot;Helvetica Neue&quot;, sans-serif; font-size: 12px; font-weight: 200;" fill="rgb(50, 49, 63)" stroke="none" stroke-width="1px">300</text><text x="693.9464285714286" y="0" dx="0em" dy="0.95em" style="text-anchor: middle; visibility: inherit; font-family: &quot;Helvetica Neue&quot;, sans-serif; font-size: 12px; font-weight: 200;" fill="rgb(50, 49, 63)" stroke="none" stroke-width="1px">350</text><text x="780.6897321428572" y="0" dx="0em" dy="0.95em" style="text-anchor: middle; visibility: inherit; font-family: &quot;Helvetica Neue&quot;, sans-serif; font-size: 12px; font-weight: 200;" fill="rgb(50, 49, 63)" stroke="none" stroke-width="1px">400</text><text x="867.4330357142858" y="0" dx="0em" dy="0.95em" style="text-anchor: middle; visibility: inherit; font-family: &quot;Helvetica Neue&quot;, sans-serif; font-size: 12px; font-weight: 200;" fill="rgb(50, 49, 63)" stroke="none" stroke-width="1px">450</text><text x="954.1763392857142" y="0" dx="0em" dy="0.95em" style="text-anchor: middle; visibility: inherit; font-family: &quot;Helvetica Neue&quot;, sans-serif; font-size: 12px; font-weight: 200;" fill="rgb(50, 49, 63)" stroke="none" stroke-width="1px">500</text><text x="1040.919642857143" y="0" dx="0em" dy="0.95em" style="text-anchor: middle; visibility: inherit; font-family: &quot;Helvetica Neue&quot;, sans-serif; font-size: 12px; font-weight: 200;" fill="rgb(50, 49, 63)" stroke="none" stroke-width="1px">550</text><text x="1127.6629464285716" y="0" dx="0em" dy="0.95em" style="text-anchor: middle; visibility: inherit; font-family: &quot;Helvetica Neue&quot;, sans-serif; font-size: 12px; font-weight: 200;" fill="rgb(50, 49, 63)" stroke="none" stroke-width="1px">600</text><text x="1214.40625" y="0" dx="0em" dy="0.95em" style="text-anchor: middle; visibility: hidden; font-family: &quot;Helvetica Neue&quot;, sans-serif; font-size: 12px; font-weight: 200;" fill="rgb(50, 49, 63)" stroke="none" stroke-width="1px">650</text></g><line x1="0" y1="0" x2="1214.40625" y2="0" fill="rgb(0, 0, 0)" stroke="rgb(204, 204, 204)" stroke-width="1px"></line></g></g></g></g></svg>